<svg xmlns="http://www.w3.org/2000/svg" viewBox="0 0 256 256">
  <rect width="256" height="256" fill="#FDF6E9"/>
  <path d="M128 80c-20 0-36 12-36 28v40c0 16 16 28 36 28s36-12 36-28v-40c0-16-16-28-36-28z" fill="#F97316"/>
  <ellipse cx="110" cy="120" rx="6" ry="8" fill="#FDF6E9"/>
  <ellipse cx="146" cy="120" rx="6" ry="8" fill="#FDF6E9"/>
  <path d="M128 135c-8 0-12 4-12 8s4 8 12 8 12-4 12-8-4-8-12-8z" fill="#FDF6E9"/>
  <path d="M80 100c-8-12-12-24-8-32 4-8 16-8 24 0l8 12z" fill="#F97316"/>
  <path d="M176 100c8-12 12-24 8-32-4-8-16-8-24 0l-8 12z" fill="#F97316"/>
  <rect x="88" y="40" width="80" height="48" rx="8" fill="#FFFFFF"/>
  <ellipse cx="128" cy="52" rx="32" ry="12" fill="#F5F5F5"/>
  <path d="M108 64h40v16h-40z" fill="#F5F5F5"/>
</svg>